# xmcd
#
# Track frame offsets:
#	180
#	11344
#	23470
#	34499
#	45419
#	60573
#	70719
#	84296
#	96927
#	110139
#
# Disc length: 1606
#
# Revision: 2
# Processed by: cddbd v1.5.1PL0 Copyright (c) Steve Scherf et al.
# Submitted via: CDex 1.40Beta9
# Normalized: r0:TDELIM( - ),TSWAP
#
DISCID=7206440a
DTITLE=Various Artist - Country Pride - Country Style
DYEAR=1999
DGENRE=Country
TTITLE0=Conway Twitty - Hello Darlin'
TTITLE1=Merle Hagard - Workin' Man Blues
TTITLE2=Roger Miller - King Of The Road
TTITLE3=Bill Anderson - Wild Weekend
TTITLE4=Ed Bruce - Mamma's Don't let Your Babies Grow Up To Be Cowboys
TTITLE5=The Kendals - I Had A Lvely Time
TTITLE6=T. Graham Brown - I Tell It Like It Used To Be
TTITLE7=Lee Greenwood - Touch And Go Crazy
TTITLE8=Ray Kennedy - What qa Way To Go
TTITLE9=Patsy Cline - Walkin' Dream
EXTD=YEAR: 1999 ID3G: 2
EXTT0=
EXTT1=
EXTT2=
EXTT3=
EXTT4=
EXTT5=
EXTT6=
EXTT7=
EXTT8=
EXTT9=
PLAYORDER=
